<?xml version="1.0" encoding="UTF-8"?><svg xmlns="http://www.w3.org/2000/svg" xmlns:xlink="http://www.w3.org/1999/xlink" width="30pt" zoomAndPan="magnify" viewBox="0 0 30 30.000001" height="30.000001pt" preserveAspectRatio="xMidYMid meet" version="1.2"><defs><clipPath xml:id="clip1" id="clip1"><path d="M 0.484375 0 L 29.515625 0 L 29.515625 29.03125 L 0.484375 29.03125 Z M 0.484375 0 "/></clipPath><clipPath xml:id="clip2" id="clip2"><path d="M 5 6 L 25 6 L 25 28.664062 L 5 28.664062 Z M 5 6 "/></clipPath><clipPath xml:id="clip3" id="clip3"><path d="M 10 0.355469 L 19 0.355469 L 19 6 L 10 6 Z M 10 0.355469 "/></clipPath><clipPath xml:id="clip4" id="clip4"><path d="M 18 5 L 29.515625 5 L 29.515625 23 L 18 23 Z M 18 5 "/></clipPath><clipPath xml:id="clip5" id="clip5"><path d="M 0.484375 5 L 11 5 L 11 23 L 0.484375 23 Z M 0.484375 5 "/></clipPath></defs><g xml:id="surface1" id="surface1"><g clip-rule="nonzero" clip-path="url(#clip1)"><path style=" stroke:none;fill-rule:nonzero;fill:rgb(100%,100%,100%);fill-opacity:1;" d="M 0.484375 0 L 29.515625 0 L 29.515625 36.289062 L 0.484375 36.289062 Z M 0.484375 0 "/><path style=" stroke:none;fill-rule:nonzero;fill:rgb(100%,100%,100%);fill-opacity:1;" d="M 0.484375 0 L 29.515625 0 L 29.515625 29.03125 L 0.484375 29.03125 Z M 0.484375 0 "/><path style=" stroke:none;fill-rule:nonzero;fill:rgb(100%,100%,100%);fill-opacity:1;" d="M 0.484375 0 L 29.515625 0 L 29.515625 29.03125 L 0.484375 29.03125 Z M 0.484375 0 "/></g><g clip-rule="nonzero" clip-path="url(#clip2)"><path style=" stroke:none;fill-rule:evenodd;fill:rgb(25.878906%,72.158813%,51.368713%);fill-opacity:1;" d="M 7.265625 8.230469 C 7.269531 8.910156 7.285156 9.59375 7.3125 10.273438 C 7.316406 10.367188 7.46875 10.378906 7.464844 10.273438 C 7.441406 9.601562 7.425781 8.910156 7.421875 8.203125 C 7.421875 8.097656 7.265625 8.113281 7.265625 8.230469 Z M 7.917969 7.015625 C 8.117188 7.1875 8.335938 7.394531 8.585938 7.632812 C 8.972656 8 9.410156 8.414062 9.914062 8.824219 C 9.953125 8.851562 9.992188 8.847656 10.023438 8.8125 C 10.054688 8.769531 10.050781 8.734375 10.011719 8.703125 C 9.511719 8.296875 9.074219 7.882812 8.691406 7.519531 C 8.441406 7.28125 8.21875 7.070312 8.015625 6.898438 C 7.9375 6.832031 7.847656 6.957031 7.917969 7.015625 Z M 7.445312 12.59375 C 7.492188 13.195312 7.550781 13.785156 7.617188 14.351562 C 7.628906 14.453125 7.78125 14.425781 7.769531 14.332031 C 7.703125 13.75 7.648438 13.171875 7.601562 12.585938 C 7.59375 12.492188 7.4375 12.488281 7.445312 12.59375 Z M 7.945312 16.621094 C 7.988281 16.859375 8.03125 17.09375 8.074219 17.320312 C 8.085938 17.371094 8.113281 17.390625 8.164062 17.378906 C 8.214844 17.371094 8.238281 17.339844 8.226562 17.289062 C 8.179688 17.058594 8.136719 16.824219 8.097656 16.589844 C 8.078125 16.484375 7.929688 16.53125 7.945312 16.621094 Z M 11.171875 13.078125 C 11.332031 13.175781 11.5 13.289062 11.679688 13.410156 L 11.6875 13.414062 C 11.789062 13.480469 11.894531 13.554688 12.003906 13.625 C 12.046875 13.652344 12.054688 13.6875 12.023438 13.730469 C 11.996094 13.773438 11.960938 13.78125 11.917969 13.753906 C 11.804688 13.679688 11.699219 13.609375 11.59375 13.539062 C 11.421875 13.421875 11.253906 13.308594 11.097656 13.214844 C 11.019531 13.167969 11.082031 13.023438 11.171875 13.078125 Z M 21.886719 16.621094 C 21.757812 17.359375 21.609375 18.070312 21.445312 18.746094 C 21.433594 18.796875 21.402344 18.8125 21.351562 18.800781 C 21.300781 18.789062 21.28125 18.757812 21.292969 18.707031 C 21.457031 18.035156 21.605469 17.324219 21.734375 16.589844 C 21.753906 16.484375 21.902344 16.53125 21.886719 16.621094 Z M 18.65625 13.078125 C 18.496094 13.175781 18.328125 13.289062 18.152344 13.410156 L 18.132812 13.421875 C 18.089844 13.449219 18.085938 13.484375 18.113281 13.527344 C 18.140625 13.570312 18.179688 13.578125 18.21875 13.550781 L 18.238281 13.539062 C 18.410156 13.421875 18.578125 13.308594 18.734375 13.214844 C 18.8125 13.167969 18.746094 13.023438 18.65625 13.078125 Z M 22.386719 12.59375 C 22.335938 13.195312 22.28125 13.785156 22.214844 14.351562 C 22.203125 14.453125 22.050781 14.425781 22.058594 14.332031 C 22.125 13.769531 22.183594 13.183594 22.230469 12.585938 C 22.238281 12.492188 22.394531 12.488281 22.386719 12.59375 Z M 22.566406 8.230469 C 22.558594 8.925781 22.546875 9.613281 22.519531 10.273438 C 22.515625 10.371094 22.359375 10.378906 22.363281 10.273438 C 22.390625 9.605469 22.40625 8.910156 22.410156 8.207031 C 22.410156 8.097656 22.566406 8.113281 22.566406 8.230469 Z M 21.914062 7.015625 C 21.714844 7.1875 21.496094 7.394531 21.246094 7.632812 C 20.964844 7.902344 20.679688 8.167969 20.386719 8.425781 C 20.347656 8.457031 20.3125 8.453125 20.277344 8.417969 C 20.242188 8.378906 20.246094 8.34375 20.285156 8.308594 C 20.601562 8.03125 20.898438 7.746094 21.140625 7.519531 C 21.390625 7.28125 21.613281 7.070312 21.816406 6.898438 C 21.890625 6.832031 21.984375 6.957031 21.914062 7.015625 Z M 19.867188 8.839844 C 19.832031 8.839844 19.808594 8.824219 19.792969 8.789062 C 19.78125 8.753906 19.789062 8.726562 19.820312 8.703125 C 19.851562 8.675781 19.886719 8.648438 19.917969 8.621094 C 19.957031 8.585938 19.996094 8.589844 20.027344 8.628906 C 20.0625 8.671875 20.058594 8.707031 20.015625 8.742188 C 19.984375 8.769531 19.949219 8.796875 19.917969 8.824219 C 19.902344 8.835938 19.886719 8.839844 19.867188 8.839844 Z M 10.507812 9.253906 C 10.488281 9.253906 10.476562 9.25 10.460938 9.242188 C 10.429688 9.21875 10.398438 9.195312 10.363281 9.171875 C 10.324219 9.140625 10.316406 9.101562 10.347656 9.0625 C 10.378906 9.019531 10.414062 9.015625 10.457031 9.042969 C 10.488281 9.066406 10.519531 9.089844 10.550781 9.113281 C 10.582031 9.136719 10.59375 9.164062 10.582031 9.199219 C 10.570312 9.238281 10.542969 9.253906 10.507812 9.253906 Z M 18.488281 9.792969 C 18.421875 9.792969 18.394531 9.761719 18.414062 9.695312 C 18.417969 9.675781 18.429688 9.660156 18.449219 9.648438 C 18.480469 9.632812 18.507812 9.613281 18.539062 9.597656 C 18.566406 9.578125 18.597656 9.582031 18.625 9.601562 C 18.652344 9.625 18.660156 9.652344 18.652344 9.683594 C 18.644531 9.703125 18.632812 9.722656 18.617188 9.730469 C 18.585938 9.75 18.554688 9.765625 18.527344 9.785156 C 18.515625 9.789062 18.5 9.792969 18.488281 9.792969 Z M 12.8125 10.445312 C 12.804688 10.445312 12.796875 10.441406 12.789062 10.441406 C 12.75 10.429688 12.714844 10.417969 12.679688 10.402344 C 12.644531 10.394531 12.628906 10.371094 12.625 10.335938 C 12.625 10.300781 12.636719 10.277344 12.667969 10.261719 C 12.6875 10.25 12.707031 10.25 12.726562 10.257812 C 12.761719 10.269531 12.796875 10.28125 12.835938 10.292969 C 12.875 10.304688 12.894531 10.332031 12.886719 10.378906 C 12.878906 10.421875 12.855469 10.445312 12.8125 10.445312 Z M 11.519531 10.65625 C 11.289062 10.65625 11.089844 10.574219 10.925781 10.40625 C 10.765625 10.242188 10.683594 10.042969 10.683594 9.8125 C 10.683594 9.578125 10.761719 9.378906 10.925781 9.214844 C 11.089844 9.050781 11.289062 8.96875 11.519531 8.96875 C 11.753906 8.96875 11.949219 9.050781 12.113281 9.214844 C 12.277344 9.378906 12.359375 9.578125 12.359375 9.8125 C 12.359375 10.042969 12.277344 10.242188 12.113281 10.40625 C 11.949219 10.570312 11.753906 10.652344 11.519531 10.65625 Z M 14.914062 10.769531 C 14.378906 10.769531 13.847656 10.710938 13.320312 10.585938 C 13.269531 10.574219 13.25 10.542969 13.265625 10.492188 C 13.277344 10.445312 13.308594 10.425781 13.355469 10.4375 C 14.976562 10.8125 16.527344 10.625 18.011719 9.878906 C 18.058594 9.855469 18.09375 9.867188 18.117188 9.914062 C 18.140625 9.964844 18.128906 10 18.078125 10.019531 C 17.085938 10.523438 16.03125 10.773438 14.914062 10.769531 Z M 12.933594 14.3125 C 12.921875 14.3125 12.914062 14.308594 12.902344 14.304688 C 12.859375 14.285156 12.8125 14.265625 12.769531 14.246094 C 12.726562 14.222656 12.714844 14.1875 12.734375 14.140625 C 12.757812 14.097656 12.789062 14.082031 12.835938 14.105469 C 12.878906 14.125 12.921875 14.144531 12.964844 14.164062 C 13.003906 14.179688 13.019531 14.210938 13.011719 14.25 C 13 14.292969 12.976562 14.3125 12.933594 14.3125 Z M 14.914062 15.078125 C 14.792969 15.078125 14.6875 15.039062 14.59375 14.957031 C 14.5 14.878906 14.445312 14.777344 14.425781 14.65625 C 14.070312 14.652344 13.71875 14.59375 13.378906 14.484375 C 13.328125 14.46875 13.3125 14.4375 13.328125 14.386719 C 13.34375 14.339844 13.375 14.320312 13.425781 14.335938 C 13.75 14.441406 14.085938 14.496094 14.425781 14.503906 C 14.445312 14.382812 14.503906 14.28125 14.59375 14.203125 C 14.6875 14.125 14.792969 14.085938 14.914062 14.085938 C 15.035156 14.085938 15.144531 14.125 15.234375 14.203125 C 15.328125 14.28125 15.382812 14.382812 15.402344 14.503906 C 16.363281 14.484375 17.117188 14.082031 17.726562 13.691406 C 17.769531 13.664062 17.804688 13.671875 17.835938 13.714844 C 17.863281 13.757812 17.855469 13.792969 17.8125 13.820312 C 17.179688 14.226562 16.402344 14.640625 15.402344 14.65625 C 15.382812 14.777344 15.328125 14.878906 15.238281 14.957031 C 15.144531 15.039062 15.039062 15.078125 14.914062 15.078125 Z M 8.3125 18.164062 C 8.273438 18.164062 8.246094 18.144531 8.238281 18.101562 L 8.199219 17.933594 C 8.191406 17.882812 8.210938 17.851562 8.261719 17.84375 C 8.308594 17.832031 8.339844 17.851562 8.351562 17.902344 L 8.386719 18.070312 C 8.398438 18.121094 8.378906 18.152344 8.328125 18.160156 C 8.324219 18.164062 8.320312 18.164062 8.3125 18.164062 Z M 21.191406 19.492188 C 21.1875 19.492188 21.179688 19.492188 21.171875 19.488281 C 21.121094 19.476562 21.105469 19.445312 21.117188 19.394531 L 21.144531 19.300781 C 21.15625 19.253906 21.1875 19.234375 21.238281 19.246094 C 21.285156 19.261719 21.304688 19.292969 21.292969 19.339844 L 21.265625 19.433594 C 21.257812 19.472656 21.230469 19.492188 21.191406 19.492188 Z M 20.824219 20.730469 C 20.816406 20.730469 20.808594 20.730469 20.800781 20.726562 C 20.78125 20.722656 20.765625 20.707031 20.753906 20.6875 C 20.746094 20.667969 20.746094 20.648438 20.75 20.628906 C 20.769531 20.570312 20.789062 20.511719 20.808594 20.453125 C 20.824219 20.402344 20.855469 20.386719 20.90625 20.402344 C 20.953125 20.417969 20.972656 20.449219 20.957031 20.5 C 20.9375 20.558594 20.917969 20.621094 20.898438 20.679688 C 20.886719 20.714844 20.863281 20.730469 20.824219 20.730469 Z M 9.550781 22.210938 C 9.515625 22.210938 9.492188 22.195312 9.476562 22.164062 C 9.230469 21.566406 9.003906 20.921875 8.796875 20.25 C 8.78125 20.25 8.761719 20.25 8.742188 20.25 C 8.628906 20.25 8.523438 20.214844 8.433594 20.144531 C 8.34375 20.070312 8.285156 19.976562 8.261719 19.867188 C 8.234375 19.753906 8.25 19.644531 8.296875 19.539062 C 8.347656 19.433594 8.425781 19.359375 8.53125 19.308594 C 8.460938 19.046875 8.394531 18.777344 8.328125 18.507812 C 8.320312 18.472656 8.332031 18.449219 8.359375 18.425781 C 8.386719 18.40625 8.414062 18.40625 8.445312 18.421875 C 8.464844 18.433594 8.476562 18.449219 8.480469 18.472656 C 8.542969 18.738281 8.609375 19.003906 8.679688 19.261719 C 8.800781 19.246094 8.910156 19.273438 9.011719 19.339844 C 9.117188 19.40625 9.183594 19.5 9.21875 19.617188 C 9.25 19.738281 9.242188 19.851562 9.191406 19.964844 C 9.140625 20.074219 9.058594 20.15625 8.945312 20.207031 C 9.152344 20.875 9.378906 21.511719 9.621094 22.105469 C 9.640625 22.152344 9.625 22.1875 9.578125 22.207031 C 9.570312 22.210938 9.558594 22.210938 9.550781 22.210938 Z M 9.773438 22.734375 C 9.742188 22.734375 9.71875 22.71875 9.703125 22.691406 C 9.683594 22.644531 9.664062 22.597656 9.640625 22.550781 C 9.621094 22.5 9.632812 22.46875 9.679688 22.445312 C 9.730469 22.425781 9.761719 22.4375 9.785156 22.488281 C 9.804688 22.535156 9.824219 22.582031 9.84375 22.625 C 9.855469 22.652344 9.855469 22.675781 9.839844 22.699219 C 9.824219 22.722656 9.804688 22.734375 9.773438 22.734375 Z M 6.441406 23.253906 C 6.398438 23.253906 6.375 23.234375 6.367188 23.191406 L 6.246094 22.535156 C 6.210938 22.335938 6.09375 22.214844 5.894531 22.179688 L 5.242188 22.058594 C 5.199219 22.050781 5.175781 22.027344 5.175781 21.984375 C 5.175781 21.941406 5.199219 21.914062 5.242188 21.90625 L 5.894531 21.789062 C 6.09375 21.75 6.210938 21.632812 6.246094 21.433594 L 6.367188 20.777344 C 6.375 20.734375 6.398438 20.710938 6.441406 20.710938 C 6.484375 20.710938 6.511719 20.734375 6.519531 20.777344 L 6.636719 21.433594 C 6.675781 21.632812 6.792969 21.75 6.992188 21.789062 C 6.996094 21.789062 7.644531 21.90625 7.644531 21.90625 C 7.6875 21.914062 7.707031 21.941406 7.707031 21.984375 C 7.707031 22.027344 7.6875 22.050781 7.644531 22.058594 L 6.992188 22.179688 C 6.792969 22.214844 6.675781 22.335938 6.636719 22.535156 L 6.519531 23.191406 C 6.511719 23.234375 6.484375 23.253906 6.441406 23.253906 Z M 23.386719 23.253906 C 23.34375 23.253906 23.320312 23.234375 23.3125 23.191406 L 23.195312 22.535156 C 23.15625 22.335938 23.039062 22.214844 22.839844 22.179688 L 22.1875 22.058594 C 22.144531 22.050781 22.121094 22.027344 22.121094 21.984375 C 22.121094 21.941406 22.144531 21.914062 22.1875 21.90625 L 22.839844 21.789062 C 23.039062 21.75 23.15625 21.632812 23.191406 21.433594 L 23.3125 20.777344 C 23.320312 20.734375 23.34375 20.710938 23.386719 20.710938 C 23.429688 20.710938 23.457031 20.734375 23.464844 20.777344 L 23.582031 21.433594 C 23.621094 21.632812 23.738281 21.75 23.9375 21.789062 L 24.589844 21.90625 C 24.632812 21.914062 24.652344 21.941406 24.652344 21.984375 C 24.652344 22.027344 24.632812 22.050781 24.589844 22.058594 L 23.9375 22.179688 C 23.738281 22.214844 23.621094 22.335938 23.582031 22.535156 L 23.464844 23.191406 C 23.457031 23.234375 23.429688 23.253906 23.386719 23.253906 Z M 10.390625 23.96875 C 10.359375 23.96875 10.335938 23.953125 10.320312 23.929688 L 10.285156 23.859375 C 10.273438 23.84375 10.269531 23.820312 10.277344 23.800781 C 10.289062 23.769531 10.308594 23.75 10.34375 23.746094 C 10.378906 23.742188 10.402344 23.753906 10.417969 23.785156 L 10.457031 23.851562 C 10.472656 23.878906 10.46875 23.902344 10.457031 23.929688 C 10.441406 23.957031 10.417969 23.96875 10.390625 23.96875 Z M 14.914062 25.417969 C 14.871094 25.417969 14.847656 25.394531 14.839844 25.351562 L 14.757812 24.90625 C 14.734375 24.78125 14.660156 24.707031 14.535156 24.683594 L 14.089844 24.601562 C 14.046875 24.59375 14.027344 24.566406 14.027344 24.523438 C 14.027344 24.480469 14.046875 24.457031 14.089844 24.449219 L 14.535156 24.367188 C 14.660156 24.34375 14.734375 24.269531 14.757812 24.144531 L 14.839844 23.695312 C 14.847656 23.652344 14.871094 23.632812 14.914062 23.632812 C 14.957031 23.632812 14.984375 23.652344 14.992188 23.695312 L 15.074219 24.144531 C 15.097656 24.269531 15.167969 24.34375 15.292969 24.367188 L 15.738281 24.449219 C 15.78125 24.457031 15.804688 24.480469 15.804688 24.523438 C 15.804688 24.566406 15.78125 24.59375 15.738281 24.601562 L 15.292969 24.683594 C 15.167969 24.707031 15.097656 24.78125 15.074219 24.90625 L 14.992188 25.355469 C 14.984375 25.394531 14.957031 25.417969 14.914062 25.417969 Z M 18.339844 25.632812 C 18.308594 25.632812 18.285156 25.617188 18.269531 25.585938 C 18.257812 25.558594 18.257812 25.53125 18.28125 25.503906 C 18.523438 25.195312 18.753906 24.875 18.964844 24.542969 C 18.875 24.464844 18.820312 24.367188 18.800781 24.246094 C 18.78125 24.128906 18.804688 24.019531 18.863281 23.917969 C 18.925781 23.8125 19.011719 23.742188 19.121094 23.703125 C 19.234375 23.660156 19.34375 23.660156 19.457031 23.703125 C 19.894531 22.882812 20.265625 22.035156 20.570312 21.15625 C 20.578125 21.136719 20.59375 21.121094 20.613281 21.113281 C 20.632812 21.101562 20.652344 21.101562 20.671875 21.109375 C 20.71875 21.128906 20.734375 21.160156 20.71875 21.207031 C 20.410156 22.09375 20.035156 22.949219 19.59375 23.777344 C 19.777344 23.921875 19.832031 24.105469 19.757812 24.328125 C 19.679688 24.554688 19.523438 24.664062 19.289062 24.664062 C 19.222656 24.664062 19.15625 24.652344 19.09375 24.625 C 18.878906 24.964844 18.648438 25.289062 18.398438 25.601562 C 18.386719 25.621094 18.363281 25.632812 18.339844 25.632812 Z M 17.917969 26.125 C 17.886719 26.125 17.859375 26.109375 17.847656 26.078125 C 17.835938 26.046875 17.839844 26.019531 17.863281 25.996094 C 17.898438 25.953125 17.9375 25.910156 17.976562 25.867188 C 17.992188 25.847656 18.007812 25.839844 18.03125 25.839844 C 18.050781 25.839844 18.070312 25.84375 18.085938 25.859375 C 18.125 25.894531 18.128906 25.929688 18.09375 25.96875 C 18.054688 26.011719 18.015625 26.058594 17.976562 26.101562 C 17.960938 26.117188 17.941406 26.125 17.917969 26.125 Z M 17.078125 26.917969 C 17.042969 26.917969 17.019531 26.898438 17.007812 26.867188 C 16.992188 26.832031 17.003906 26.800781 17.03125 26.777344 C 17.070312 26.746094 17.113281 26.710938 17.15625 26.675781 C 17.171875 26.664062 17.191406 26.65625 17.210938 26.660156 C 17.234375 26.660156 17.25 26.667969 17.265625 26.6875 C 17.277344 26.703125 17.285156 26.722656 17.28125 26.742188 C 17.28125 26.765625 17.269531 26.78125 17.253906 26.796875 C 17.210938 26.832031 17.167969 26.867188 17.128906 26.898438 C 17.113281 26.910156 17.097656 26.917969 17.078125 26.917969 Z M 14.914062 26.515625 C 14.785156 26.515625 14.65625 26.539062 14.535156 26.589844 C 14.414062 26.640625 14.308594 26.710938 14.214844 26.804688 C 14.125 26.898438 14.050781 27.007812 14 27.128906 C 13.953125 27.25 13.925781 27.375 13.925781 27.507812 C 13.925781 27.640625 13.953125 27.765625 14 27.890625 C 14.050781 28.011719 14.125 28.117188 14.214844 28.210938 C 14.308594 28.304688 14.417969 28.375 14.539062 28.425781 C 14.660156 28.476562 14.785156 28.503906 14.917969 28.503906 C 15.046875 28.503906 15.171875 28.476562 15.292969 28.425781 C 15.414062 28.375 15.523438 28.304688 15.617188 28.210938 C 15.707031 28.117188 15.78125 28.011719 15.828125 27.886719 C 15.878906 27.765625 15.90625 27.640625 15.90625 27.507812 C 15.90625 27.375 15.878906 27.25 15.828125 27.128906 C 15.777344 27.007812 15.707031 26.898438 15.613281 26.804688 C 15.523438 26.710938 15.414062 26.640625 15.292969 26.589844 C 15.171875 26.539062 15.046875 26.515625 14.914062 26.515625 Z M 14.914062 28.65625 C 15.0625 28.660156 15.203125 28.632812 15.339844 28.578125 C 15.476562 28.523438 15.601562 28.445312 15.707031 28.339844 C 15.8125 28.238281 15.898438 28.121094 15.957031 27.988281 C 16.019531 27.851562 16.050781 27.710938 16.058594 27.5625 C 16.332031 27.449219 16.585938 27.304688 16.824219 27.128906 C 16.867188 27.097656 16.871094 27.0625 16.84375 27.019531 C 16.8125 26.976562 16.777344 26.972656 16.734375 27 C 16.519531 27.15625 16.292969 27.289062 16.054688 27.394531 C 16.023438 27.101562 15.902344 26.855469 15.683594 26.65625 C 15.464844 26.457031 15.210938 26.359375 14.914062 26.359375 C 14.621094 26.359375 14.363281 26.457031 14.148438 26.65625 C 13.929688 26.855469 13.804688 27.101562 13.777344 27.394531 C 13.453125 27.253906 12.152344 26.578125 10.839844 24.5 C 10.828125 24.480469 10.8125 24.46875 10.789062 24.464844 C 10.757812 24.457031 10.730469 24.46875 10.710938 24.496094 C 10.691406 24.523438 10.691406 24.554688 10.707031 24.582031 C 12.125 26.824219 13.476562 27.449219 13.773438 27.5625 C 13.777344 27.710938 13.8125 27.851562 13.875 27.988281 C 13.933594 28.121094 14.019531 28.238281 14.125 28.34375 C 14.230469 28.445312 14.351562 28.523438 14.488281 28.578125 C 14.625 28.632812 14.769531 28.660156 14.914062 28.65625 Z M 19.246094 9.503906 C 19.164062 9.503906 19.089844 9.472656 19.03125 9.414062 C 18.972656 9.355469 18.945312 9.285156 18.945312 9.199219 C 18.945312 9.117188 18.972656 9.046875 19.03125 8.984375 C 19.089844 8.925781 19.164062 8.898438 19.246094 8.898438 C 19.328125 8.898438 19.398438 8.925781 19.460938 8.984375 C 19.519531 9.046875 19.546875 9.117188 19.546875 9.199219 C 19.546875 9.285156 19.519531 9.355469 19.460938 9.414062 C 19.398438 9.472656 19.328125 9.503906 19.246094 9.503906 Z M 19.246094 9.503906 "/></g><g clip-rule="nonzero" clip-path="url(#clip3)"><path style=" stroke:none;fill-rule:evenodd;fill:rgb(25.878906%,72.158813%,51.368713%);fill-opacity:1;" d="M 14.914062 0.6875 C 14.863281 0.6875 14.839844 0.664062 14.839844 0.609375 L 14.839844 0.441406 C 14.839844 0.386719 14.863281 0.363281 14.914062 0.363281 C 14.96875 0.363281 14.992188 0.386719 14.992188 0.441406 L 14.992188 0.609375 C 14.992188 0.664062 14.96875 0.6875 14.914062 0.6875 Z M 13.703125 1.433594 C 13.664062 1.433594 13.636719 1.414062 13.628906 1.375 L 13.589844 1.214844 C 13.578125 1.164062 13.597656 1.132812 13.648438 1.121094 C 13.667969 1.117188 13.6875 1.117188 13.707031 1.128906 C 13.726562 1.140625 13.738281 1.15625 13.742188 1.179688 L 13.78125 1.339844 C 13.792969 1.402344 13.769531 1.433594 13.703125 1.433594 Z M 16.125 1.433594 C 16.121094 1.433594 16.113281 1.433594 16.109375 1.433594 C 16.058594 1.421875 16.039062 1.390625 16.050781 1.339844 L 16.089844 1.179688 C 16.09375 1.15625 16.105469 1.140625 16.125 1.128906 C 16.144531 1.117188 16.164062 1.117188 16.183594 1.121094 C 16.234375 1.132812 16.25 1.164062 16.238281 1.214844 L 16.203125 1.375 C 16.191406 1.414062 16.167969 1.433594 16.125 1.433594 Z M 12.097656 1.449219 C 12.066406 1.449219 12.042969 1.433594 12.027344 1.40625 L 11.945312 1.257812 C 11.921875 1.214844 11.933594 1.179688 11.976562 1.152344 C 12.023438 1.128906 12.058594 1.136719 12.082031 1.183594 L 12.164062 1.332031 C 12.179688 1.359375 12.179688 1.382812 12.164062 1.410156 C 12.148438 1.433594 12.125 1.449219 12.097656 1.449219 Z M 17.734375 1.449219 C 17.707031 1.449219 17.683594 1.433594 17.667969 1.410156 C 17.652344 1.382812 17.652344 1.359375 17.667969 1.332031 L 17.75 1.183594 C 17.773438 1.136719 17.808594 1.128906 17.855469 1.152344 C 17.898438 1.179688 17.910156 1.214844 17.882812 1.257812 L 17.800781 1.40625 C 17.789062 1.433594 17.765625 1.449219 17.734375 1.449219 Z M 11.277344 2.898438 C 11.253906 2.898438 11.238281 2.890625 11.222656 2.875 L 11.113281 2.765625 C 11.089844 2.742188 11.085938 2.714844 11.097656 2.683594 C 11.109375 2.648438 11.132812 2.632812 11.167969 2.632812 C 11.191406 2.632812 11.207031 2.640625 11.222656 2.65625 L 11.332031 2.765625 C 11.355469 2.789062 11.363281 2.820312 11.347656 2.851562 C 11.335938 2.882812 11.3125 2.898438 11.277344 2.898438 Z M 18.554688 2.898438 C 18.519531 2.898438 18.496094 2.882812 18.484375 2.851562 C 18.46875 2.820312 18.476562 2.789062 18.5 2.765625 L 18.609375 2.65625 C 18.644531 2.621094 18.679688 2.621094 18.71875 2.65625 C 18.753906 2.691406 18.753906 2.730469 18.71875 2.765625 L 18.609375 2.875 C 18.59375 2.890625 18.574219 2.898438 18.554688 2.898438 Z M 14.914062 3.410156 C 14.863281 3.410156 14.839844 3.382812 14.839844 3.332031 L 14.839844 1.199219 C 14.839844 1.148438 14.863281 1.121094 14.914062 1.121094 C 14.96875 1.121094 14.992188 1.148438 14.992188 1.199219 L 14.992188 3.332031 C 14.992188 3.382812 14.96875 3.410156 14.914062 3.410156 Z M 14.175781 3.441406 C 14.136719 3.441406 14.113281 3.421875 14.101562 3.382812 L 13.753906 1.910156 C 13.742188 1.859375 13.761719 1.828125 13.8125 1.816406 C 13.832031 1.808594 13.851562 1.8125 13.871094 1.824219 C 13.890625 1.835938 13.902344 1.851562 13.90625 1.875 L 14.253906 3.347656 C 14.265625 3.398438 14.246094 3.429688 14.195312 3.441406 C 14.1875 3.441406 14.183594 3.441406 14.175781 3.441406 Z M 15.652344 3.441406 C 15.648438 3.441406 15.640625 3.441406 15.636719 3.441406 C 15.585938 3.429688 15.566406 3.398438 15.578125 3.347656 L 15.925781 1.875 C 15.929688 1.851562 15.941406 1.835938 15.960938 1.824219 C 15.980469 1.8125 16 1.808594 16.019531 1.816406 C 16.070312 1.828125 16.089844 1.859375 16.078125 1.910156 L 15.730469 3.382812 C 15.71875 3.421875 15.695312 3.441406 15.652344 3.441406 Z M 13.367188 3.757812 C 13.335938 3.757812 13.3125 3.746094 13.296875 3.71875 L 12.328125 1.953125 C 12.304688 1.90625 12.3125 1.871094 12.359375 1.847656 C 12.378906 1.835938 12.398438 1.835938 12.417969 1.839844 C 12.4375 1.847656 12.453125 1.859375 12.464844 1.878906 L 13.433594 3.640625 C 13.445312 3.660156 13.445312 3.679688 13.441406 3.703125 C 13.433594 3.722656 13.421875 3.738281 13.402344 3.75 C 13.390625 3.753906 13.378906 3.757812 13.367188 3.757812 Z M 16.464844 3.757812 C 16.433594 3.757812 16.414062 3.746094 16.398438 3.71875 C 16.382812 3.695312 16.382812 3.667969 16.398438 3.640625 L 17.367188 1.878906 C 17.382812 1.847656 17.410156 1.835938 17.445312 1.839844 C 17.476562 1.84375 17.5 1.859375 17.507812 1.894531 C 17.515625 1.914062 17.511719 1.933594 17.503906 1.953125 L 16.53125 3.71875 C 16.519531 3.746094 16.496094 3.757812 16.464844 3.757812 Z M 11.117188 4.273438 C 11.101562 4.273438 11.089844 4.269531 11.078125 4.261719 L 10.960938 4.191406 C 10.917969 4.164062 10.910156 4.128906 10.9375 4.085938 C 10.960938 4.042969 11 4.03125 11.042969 4.058594 L 11.15625 4.128906 C 11.1875 4.148438 11.199219 4.179688 11.191406 4.214844 C 11.179688 4.253906 11.15625 4.273438 11.117188 4.273438 Z M 18.714844 4.273438 C 18.675781 4.273438 18.652344 4.253906 18.640625 4.214844 C 18.628906 4.179688 18.640625 4.148438 18.675781 4.128906 L 18.789062 4.058594 C 18.832031 4.03125 18.867188 4.042969 18.894531 4.085938 C 18.921875 4.128906 18.914062 4.164062 18.867188 4.191406 L 18.753906 4.261719 C 18.742188 4.269531 18.730469 4.273438 18.714844 4.273438 Z M 12.703125 4.339844 C 12.734375 4.339844 12.761719 4.324219 12.773438 4.292969 C 12.785156 4.257812 12.78125 4.230469 12.757812 4.207031 L 11.71875 3.15625 C 11.683594 3.121094 11.644531 3.121094 11.609375 3.15625 C 11.574219 3.195312 11.574219 3.230469 11.609375 3.265625 L 12.648438 4.316406 C 12.664062 4.332031 12.679688 4.339844 12.703125 4.339844 Z M 17.128906 4.339844 C 17.152344 4.339844 17.167969 4.332031 17.183594 4.316406 L 18.222656 3.265625 C 18.257812 3.230469 18.257812 3.195312 18.222656 3.15625 C 18.1875 3.121094 18.148438 3.121094 18.113281 3.15625 L 17.074219 4.207031 C 17.050781 4.230469 17.042969 4.257812 17.058594 4.292969 C 17.070312 4.324219 17.09375 4.339844 17.128906 4.339844 Z M 13.703125 4.503906 C 13.664062 4.503906 13.636719 4.484375 13.628906 4.445312 C 13.621094 4.402344 13.632812 4.375 13.671875 4.355469 C 13.707031 4.339844 13.746094 4.324219 13.785156 4.308594 C 13.832031 4.285156 13.867188 4.300781 13.886719 4.347656 C 13.90625 4.398438 13.890625 4.433594 13.84375 4.453125 C 13.808594 4.464844 13.769531 4.480469 13.738281 4.5 C 13.726562 4.503906 13.714844 4.507812 13.703125 4.507812 Z M 12.128906 4.886719 C 12.113281 4.886719 12.101562 4.882812 12.089844 4.875 L 11.476562 4.503906 C 11.433594 4.476562 11.421875 4.441406 11.449219 4.398438 C 11.476562 4.351562 11.511719 4.34375 11.558594 4.371094 L 12.167969 4.742188 C 12.203125 4.761719 12.214844 4.792969 12.203125 4.828125 C 12.191406 4.867188 12.167969 4.886719 12.128906 4.886719 Z M 17.703125 4.886719 C 17.664062 4.886719 17.640625 4.867188 17.628906 4.828125 C 17.617188 4.792969 17.628906 4.761719 17.664062 4.742188 L 18.273438 4.371094 C 18.320312 4.34375 18.355469 4.351562 18.382812 4.398438 C 18.410156 4.441406 18.398438 4.476562 18.355469 4.503906 L 17.742188 4.875 C 17.730469 4.882812 17.71875 4.886719 17.703125 4.886719 Z M 17.167969 5.191406 C 17.148438 5.191406 17.132812 5.1875 17.121094 5.175781 L 17.0625 5.128906 C 16.523438 4.714844 15.914062 4.246094 14.914062 4.246094 C 14.671875 4.242188 14.429688 4.273438 14.191406 4.335938 C 14.140625 4.347656 14.109375 4.328125 14.097656 4.277344 C 14.085938 4.226562 14.101562 4.195312 14.152344 4.183594 C 14.402344 4.121094 14.65625 4.089844 14.914062 4.089844 C 15.96875 4.089844 16.597656 4.578125 17.15625 5.007812 L 17.214844 5.050781 C 17.253906 5.082031 17.261719 5.121094 17.230469 5.160156 C 17.214844 5.179688 17.191406 5.191406 17.167969 5.191406 Z M 12.140625 5.558594 C 12.15625 5.558594 12.167969 5.554688 12.183594 5.546875 C 12.386719 5.421875 12.582031 5.28125 12.769531 5.128906 C 12.882812 5.042969 13 4.953125 13.121094 4.867188 C 13.160156 4.835938 13.164062 4.800781 13.136719 4.757812 C 13.105469 4.71875 13.070312 4.710938 13.03125 4.738281 C 12.90625 4.828125 12.789062 4.917969 12.675781 5.007812 C 12.492188 5.15625 12.300781 5.289062 12.101562 5.414062 C 12.058594 5.441406 12.050781 5.476562 12.074219 5.523438 C 12.089844 5.546875 12.113281 5.558594 12.140625 5.558594 Z M 17.6875 5.558594 C 17.675781 5.558594 17.660156 5.554688 17.648438 5.546875 C 17.59375 5.515625 17.535156 5.476562 17.472656 5.433594 C 17.453125 5.421875 17.441406 5.40625 17.4375 5.382812 C 17.433594 5.363281 17.4375 5.34375 17.449219 5.328125 C 17.480469 5.285156 17.515625 5.277344 17.558594 5.304688 C 17.617188 5.347656 17.671875 5.382812 17.730469 5.414062 C 17.761719 5.433594 17.773438 5.464844 17.765625 5.503906 C 17.753906 5.539062 17.730469 5.558594 17.6875 5.558594 Z M 17.6875 5.558594 "/></g><path style=" stroke:none;fill-rule:evenodd;fill:rgb(20.779419%,28.62854%,36.859131%);fill-opacity:1;" d="M 14.292969 7.085938 C 14.265625 7.085938 14.246094 7.078125 14.230469 7.058594 C 14.109375 6.90625 14.042969 6.734375 14.035156 6.539062 C 14.027344 6.34375 14.074219 6.167969 14.183594 6.003906 C 14.214844 5.960938 14.25 5.953125 14.292969 5.984375 C 14.335938 6.011719 14.339844 6.046875 14.3125 6.089844 C 14.222656 6.226562 14.183594 6.371094 14.1875 6.53125 C 14.195312 6.691406 14.25 6.835938 14.351562 6.960938 C 14.382812 7 14.378906 7.039062 14.339844 7.070312 C 14.324219 7.082031 14.308594 7.085938 14.292969 7.085938 Z M 14.914062 7.386719 C 14.800781 7.386719 14.6875 7.363281 14.582031 7.320312 C 14.535156 7.296875 14.523438 7.265625 14.542969 7.21875 C 14.558594 7.171875 14.59375 7.15625 14.640625 7.175781 C 14.800781 7.242188 14.960938 7.25 15.125 7.199219 C 15.289062 7.148438 15.421875 7.050781 15.515625 6.910156 C 15.613281 6.765625 15.65625 6.609375 15.640625 6.4375 C 15.625 6.265625 15.558594 6.117188 15.4375 5.992188 C 15.402344 5.953125 15.402344 5.917969 15.441406 5.882812 C 15.476562 5.847656 15.515625 5.847656 15.550781 5.882812 C 15.671875 6.011719 15.75 6.164062 15.78125 6.339844 C 15.816406 6.511719 15.796875 6.683594 15.726562 6.84375 C 15.65625 7.007812 15.550781 7.140625 15.402344 7.238281 C 15.253906 7.335938 15.09375 7.386719 14.914062 7.386719 Z M 12.054688 6.5 C 12.28125 6.621094 12.492188 6.765625 12.683594 6.941406 C 13.042969 7.234375 13.449219 7.566406 14.011719 7.75 C 13.8125 7.605469 13.65625 7.421875 13.542969 7.203125 C 13.433594 6.980469 13.375 6.746094 13.375 6.5 C 13.375 6.25 13.433594 6.015625 13.542969 5.796875 C 13.65625 5.578125 13.8125 5.394531 14.011719 5.246094 C 13.449219 5.433594 13.046875 5.761719 12.683594 6.058594 C 12.492188 6.230469 12.28125 6.378906 12.054688 6.5 Z M 15.820312 5.246094 C 16.019531 5.394531 16.175781 5.578125 16.285156 5.796875 C 16.398438 6.015625 16.453125 6.25 16.453125 6.5 C 16.453125 6.746094 16.398438 6.980469 16.285156 7.203125 C 16.175781 7.421875 16.019531 7.605469 15.820312 7.75 C 16.382812 7.566406 16.785156 7.234375 17.144531 6.941406 C 17.335938 6.769531 17.546875 6.621094 17.777344 6.5 C 17.546875 6.378906 17.339844 6.230469 17.144531 6.058594 C 16.785156 5.761719 16.382812 5.433594 15.820312 5.246094 Z M 14.914062 8.046875 C 16.039062 8.046875 16.707031 7.5 17.246094 7.0625 C 17.433594 6.886719 17.644531 6.742188 17.875 6.625 C 17.929688 6.601562 17.960938 6.5625 17.960938 6.5 C 17.960938 6.4375 17.929688 6.394531 17.875 6.371094 C 17.644531 6.257812 17.433594 6.113281 17.242188 5.9375 C 16.707031 5.5 16.039062 4.953125 14.914062 4.953125 C 13.789062 4.953125 13.121094 5.5 12.585938 5.9375 C 12.398438 6.113281 12.1875 6.257812 11.957031 6.371094 C 11.898438 6.394531 11.871094 6.4375 11.871094 6.5 C 11.871094 6.5625 11.898438 6.601562 11.957031 6.625 C 12.1875 6.742188 12.398438 6.886719 12.585938 7.0625 C 13.121094 7.5 13.789062 8.046875 14.914062 8.046875 Z M 14.914062 8.046875 "/><g clip-rule="nonzero" clip-path="url(#clip4)"><path style=" stroke:none;fill-rule:evenodd;fill:rgb(20.779419%,28.62854%,36.859131%);fill-opacity:1;" d="M 22.019531 5.253906 C 21.988281 5.253906 21.96875 5.269531 21.960938 5.296875 C 21.886719 5.480469 21.859375 5.667969 21.875 5.863281 C 21.894531 6.15625 21.945312 6.445312 22.023438 6.726562 C 22.332031 6.492188 22.5625 6.394531 22.757812 6.421875 C 22.628906 6.230469 22.515625 6.050781 22.417969 5.886719 C 22.355469 5.910156 22.292969 5.921875 22.230469 5.917969 C 22.191406 5.917969 22.148438 5.917969 22.109375 5.910156 C 22.058594 5.902344 22.035156 5.871094 22.042969 5.820312 C 22.054688 5.769531 22.082031 5.746094 22.132812 5.757812 C 22.199219 5.765625 22.269531 5.765625 22.335938 5.753906 C 22.230469 5.578125 22.140625 5.421875 22.074219 5.289062 C 22.0625 5.265625 22.042969 5.253906 22.019531 5.253906 Z M 24.003906 8.925781 C 23.992188 8.925781 23.980469 8.921875 23.96875 8.917969 C 23.777344 8.792969 23.609375 8.644531 23.460938 8.46875 C 23.429688 8.429688 23.433594 8.394531 23.472656 8.359375 C 23.488281 8.34375 23.507812 8.339844 23.527344 8.34375 C 23.550781 8.34375 23.566406 8.351562 23.582031 8.371094 C 23.714844 8.527344 23.867188 8.664062 24.039062 8.777344 C 24.074219 8.796875 24.089844 8.828125 24.078125 8.867188 C 24.070312 8.90625 24.042969 8.925781 24.003906 8.925781 Z M 24.621094 8.816406 C 24.753906 9 24.828125 9.09375 24.851562 9.121094 C 24.898438 9.179688 24.96875 9.273438 25.0625 9.398438 C 25.21875 9.605469 25.414062 9.863281 25.578125 10.050781 C 25.671875 10.152344 25.777344 10.246094 25.886719 10.332031 C 25.835938 10 25.722656 9.46875 25.589844 8.855469 C 25.324219 7.597656 24.988281 6.027344 24.957031 5.15625 C 24.957031 5.136719 24.949219 5.121094 24.933594 5.113281 C 24.914062 5.105469 24.894531 5.105469 24.878906 5.117188 C 24.695312 5.242188 24.550781 5.664062 24.507812 5.996094 C 24.480469 6.238281 24.507812 6.371094 24.542969 6.40625 C 24.554688 6.417969 24.5625 6.433594 24.5625 6.449219 C 24.59375 6.855469 24.601562 7.261719 24.59375 7.667969 C 24.578125 8.050781 24.589844 8.433594 24.621094 8.816406 Z M 23.855469 10.550781 C 23.648438 10.210938 23.476562 9.851562 23.339844 9.476562 C 23.242188 9.238281 23.140625 8.992188 23.011719 8.726562 C 23.011719 8.722656 23.007812 8.71875 23.003906 8.714844 C 22.835938 8.476562 22.710938 8.21875 22.632812 7.941406 C 22.554688 7.6875 22.445312 7.449219 22.308594 7.226562 C 22.304688 7.21875 22.296875 7.210938 22.292969 7.207031 C 22.191406 7.117188 22.121094 7.007812 22.078125 6.882812 C 22.488281 6.558594 22.742188 6.5 22.925781 6.679688 C 23.707031 7.855469 24.632812 9.101562 24.730469 9.21875 C 24.777344 9.277344 24.855469 9.382812 24.9375 9.492188 C 25.097656 9.699219 25.292969 9.960938 25.460938 10.152344 C 25.574219 10.273438 25.695312 10.382812 25.828125 10.480469 C 26.0625 10.671875 26.328125 10.890625 26.46875 11.144531 L 26.4375 11.140625 C 26.414062 11.140625 26.390625 11.140625 26.367188 11.136719 C 26.160156 11.125 24.886719 10.832031 23.855469 10.550781 Z M 26.027344 13.757812 C 26.015625 13.757812 26.007812 13.753906 25.996094 13.75 C 25.949219 13.730469 25.9375 13.695312 25.957031 13.648438 C 25.96875 13.617188 25.980469 13.585938 25.992188 13.554688 C 26.003906 13.503906 26.035156 13.488281 26.085938 13.5 C 26.136719 13.515625 26.152344 13.546875 26.140625 13.597656 C 26.128906 13.636719 26.113281 13.671875 26.097656 13.710938 C 26.085938 13.742188 26.0625 13.757812 26.027344 13.757812 Z M 25.023438 15.230469 C 24.992188 15.230469 24.96875 15.214844 24.953125 15.1875 C 24.929688 15.140625 24.945312 15.105469 24.992188 15.082031 C 25.007812 15.074219 25.027344 15.066406 25.042969 15.054688 C 25.089844 15.03125 25.125 15.039062 25.148438 15.085938 C 25.175781 15.132812 25.164062 15.167969 25.117188 15.191406 C 25.097656 15.203125 25.078125 15.214844 25.058594 15.222656 C 25.046875 15.230469 25.035156 15.230469 25.023438 15.230469 Z M 23.949219 16.488281 C 23.921875 16.488281 23.902344 16.476562 23.886719 16.453125 C 23.871094 16.429688 23.867188 16.402344 23.878906 16.378906 C 23.941406 16.257812 23.96875 16.128906 23.960938 15.992188 C 23.953125 15.941406 23.976562 15.910156 24.027344 15.90625 C 24.082031 15.898438 24.109375 15.921875 24.113281 15.972656 C 24.125 16.140625 24.09375 16.296875 24.019531 16.445312 C 24.007812 16.472656 23.984375 16.488281 23.949219 16.488281 Z M 23.605469 17.03125 C 23.566406 17.03125 23.542969 17.011719 23.53125 16.972656 C 23.519531 16.9375 23.53125 16.90625 23.5625 16.886719 C 23.605469 16.855469 23.644531 16.816406 23.675781 16.773438 C 23.710938 16.730469 23.746094 16.726562 23.785156 16.761719 C 23.828125 16.792969 23.832031 16.828125 23.796875 16.871094 C 23.753906 16.925781 23.703125 16.976562 23.648438 17.019531 C 23.632812 17.027344 23.621094 17.03125 23.605469 17.03125 Z M 25.292969 17.851562 C 25.285156 17.851562 25.273438 17.851562 25.261719 17.847656 C 25.234375 17.832031 25.207031 17.820312 25.175781 17.808594 C 25.128906 17.789062 25.113281 17.753906 25.136719 17.707031 C 25.15625 17.65625 25.1875 17.644531 25.234375 17.664062 C 25.265625 17.675781 25.296875 17.691406 25.328125 17.703125 C 25.363281 17.722656 25.378906 17.75 25.371094 17.792969 C 25.363281 17.832031 25.335938 17.851562 25.292969 17.851562 Z M 27.605469 20.109375 C 27.574219 20.109375 27.550781 20.097656 27.535156 20.066406 C 27.523438 20.042969 27.511719 20.019531 27.496094 19.996094 C 27.46875 19.953125 27.476562 19.917969 27.519531 19.890625 C 27.566406 19.863281 27.601562 19.871094 27.628906 19.914062 C 27.644531 19.941406 27.660156 19.96875 27.675781 19.996094 C 27.695312 20.042969 27.683594 20.078125 27.640625 20.101562 C 27.628906 20.109375 27.617188 20.109375 27.605469 20.109375 Z M 26.066406 19.085938 C 26.414062 19.675781 26.558594 20.691406 26.558594 21.125 C 26.558594 21.621094 27.050781 22.171875 28.15625 22.277344 C 28.921875 22.347656 29.871094 21.992188 30.265625 21.476562 C 30.371094 21.34375 30.480469 21.136719 30.402344 20.914062 C 30.171875 20.253906 29.910156 19.496094 29.660156 18.757812 L 29.636719 18.699219 C 29.21875 17.476562 28.824219 16.324219 28.566406 15.648438 C 28.441406 15.308594 28.300781 14.988281 28.15625 14.648438 L 28.152344 14.636719 C 27.746094 13.726562 27.410156 12.789062 27.136719 11.828125 C 27 11.324219 26.722656 11.3125 26.433594 11.296875 C 26.40625 11.296875 26.382812 11.292969 26.355469 11.292969 C 26.089844 11.277344 24.015625 10.792969 22.984375 10.457031 C 22.742188 10.378906 22.53125 10.429688 22.347656 10.601562 C 21.65625 11.246094 20.976562 11.730469 20.640625 11.902344 C 20.46875 11.953125 20.179688 12.015625 19.835938 12.078125 C 19.851562 12.164062 19.839844 12.246094 19.800781 12.320312 C 19.765625 12.390625 19.707031 12.4375 19.632812 12.460938 C 19.582031 12.476562 19.550781 12.457031 19.535156 12.40625 C 19.523438 12.355469 19.539062 12.324219 19.589844 12.3125 C 19.625 12.300781 19.648438 12.277344 19.664062 12.246094 C 19.6875 12.203125 19.695312 12.15625 19.683594 12.105469 C 19.402344 12.15625 19.140625 12.195312 18.949219 12.214844 C 18.914062 12.21875 18.886719 12.238281 18.875 12.269531 C 18.859375 12.304688 18.859375 12.335938 18.878906 12.367188 L 18.902344 12.402344 C 19.035156 12.605469 19.222656 12.738281 19.460938 12.796875 C 20.167969 12.972656 21.03125 13.050781 21.261719 12.820312 C 21.410156 12.730469 21.5625 12.65625 21.722656 12.597656 C 22.046875 12.46875 22.453125 12.304688 22.585938 12.105469 C 22.695312 11.894531 22.722656 11.417969 22.6875 11.199219 C 22.679688 11.148438 22.699219 11.121094 22.75 11.109375 C 22.800781 11.101562 22.832031 11.125 22.839844 11.175781 C 22.875 11.492188 22.847656 11.800781 22.757812 12.105469 C 22.835938 12.136719 22.945312 12.191406 23.066406 12.25 C 23.617188 12.515625 24.53125 12.957031 24.996094 12.699219 C 25.042969 12.671875 25.078125 12.683594 25.101562 12.730469 C 25.128906 12.773438 25.117188 12.808594 25.074219 12.835938 C 24.863281 12.949219 24.582031 12.960938 24.207031 12.871094 C 24.292969 13.0625 24.449219 13.226562 24.644531 13.429688 C 24.902344 13.6875 25.128906 13.972656 25.320312 14.28125 C 25.445312 14.207031 25.5625 14.121094 25.671875 14.023438 C 25.710938 13.992188 25.746094 13.992188 25.78125 14.03125 C 25.816406 14.070312 25.8125 14.105469 25.777344 14.140625 C 25.246094 14.625 24.238281 14.957031 23.480469 15.054688 C 23.789062 15.195312 24.109375 15.253906 24.449219 15.226562 C 24.46875 15.226562 24.488281 15.230469 24.503906 15.246094 C 24.519531 15.257812 24.53125 15.277344 24.53125 15.300781 C 24.535156 15.351562 24.511719 15.378906 24.460938 15.382812 C 24.40625 15.386719 24.351562 15.390625 24.296875 15.390625 C 23.988281 15.390625 23.695312 15.324219 23.417969 15.195312 C 23.25 15.113281 23.042969 15.019531 22.828125 14.921875 L 22.785156 14.898438 C 22.21875 14.636719 21.640625 14.367188 21.441406 14.238281 C 21.429688 14.230469 21.417969 14.222656 21.410156 14.207031 C 21.207031 13.769531 20.558594 13.207031 20.207031 13.089844 C 19.945312 13.058594 19.6875 13.011719 19.433594 12.949219 C 19.367188 12.953125 19.304688 12.960938 19.242188 12.980469 C 19.078125 13.027344 18.953125 13.097656 18.925781 13.160156 C 18.921875 13.167969 18.90625 13.203125 18.988281 13.261719 C 19.171875 13.414062 19.320312 13.59375 19.433594 13.800781 C 19.574219 13.816406 19.742188 13.640625 19.800781 13.542969 C 19.824219 13.496094 19.859375 13.488281 19.90625 13.515625 C 19.953125 13.539062 19.960938 13.578125 19.933594 13.621094 C 19.835938 13.785156 19.699219 13.894531 19.515625 13.949219 C 19.648438 14.195312 19.757812 14.449219 19.839844 14.71875 C 19.933594 14.4375 20.113281 14.226562 20.375 14.09375 C 20.421875 14.074219 20.453125 14.085938 20.476562 14.128906 C 20.5 14.175781 20.488281 14.210938 20.441406 14.234375 C 20.167969 14.371094 19.988281 14.632812 19.921875 14.992188 C 19.992188 15.128906 20.097656 15.226562 20.238281 15.28125 C 20.617188 15.421875 20.976562 15.601562 21.3125 15.824219 C 21.476562 15.953125 21.628906 16.09375 21.773438 16.246094 C 22.039062 16.515625 22.335938 16.816406 22.699219 17.023438 C 22.847656 17.105469 23.203125 17.171875 23.617188 17.25 C 23.96875 17.316406 24.371094 17.390625 24.742188 17.496094 C 24.792969 17.511719 24.8125 17.542969 24.796875 17.59375 C 24.78125 17.640625 24.75 17.660156 24.703125 17.644531 C 24.339844 17.542969 23.941406 17.46875 23.589844 17.402344 L 23.5625 17.398438 L 23.449219 17.378906 C 23.871094 18.003906 24.683594 18.519531 25.101562 18.640625 C 25.152344 18.65625 25.214844 18.671875 25.289062 18.691406 C 25.808594 18.832031 26.773438 19.09375 27.339844 19.585938 C 27.378906 19.621094 27.378906 19.65625 27.347656 19.695312 C 27.3125 19.734375 27.277344 19.734375 27.238281 19.703125 C 26.972656 19.472656 26.589844 19.269531 26.066406 19.085938 Z M 26.066406 19.085938 "/></g><g clip-rule="nonzero" clip-path="url(#clip5)"><path style=" stroke:none;fill-rule:evenodd;fill:rgb(20.779419%,28.62854%,36.859131%);fill-opacity:1;" d="M 7.140625 6.417969 C 7.320312 6.417969 7.53125 6.519531 7.808594 6.726562 C 7.886719 6.445312 7.9375 6.15625 7.957031 5.863281 C 7.972656 5.667969 7.945312 5.476562 7.871094 5.296875 C 7.863281 5.269531 7.84375 5.257812 7.816406 5.253906 C 7.789062 5.253906 7.769531 5.265625 7.757812 5.289062 C 7.691406 5.417969 7.601562 5.574219 7.496094 5.75 C 7.5625 5.765625 7.628906 5.765625 7.699219 5.753906 C 7.75 5.746094 7.777344 5.769531 7.785156 5.820312 C 7.796875 5.871094 7.773438 5.898438 7.722656 5.910156 C 7.683594 5.914062 7.640625 5.917969 7.601562 5.917969 C 7.535156 5.917969 7.472656 5.910156 7.414062 5.886719 C 7.316406 6.046875 7.203125 6.226562 7.074219 6.421875 C 7.097656 6.417969 7.117188 6.417969 7.140625 6.417969 Z M 5.828125 8.925781 C 5.785156 8.925781 5.761719 8.90625 5.75 8.867188 C 5.742188 8.828125 5.753906 8.796875 5.789062 8.777344 C 5.964844 8.664062 6.117188 8.527344 6.25 8.371094 C 6.285156 8.328125 6.320312 8.328125 6.359375 8.359375 C 6.398438 8.394531 6.402344 8.429688 6.367188 8.46875 C 6.222656 8.644531 6.054688 8.792969 5.863281 8.917969 C 5.851562 8.921875 5.839844 8.925781 5.828125 8.925781 Z M 4.921875 5.109375 C 4.914062 5.109375 4.90625 5.109375 4.898438 5.113281 C 4.882812 5.121094 4.871094 5.136719 4.871094 5.15625 C 4.839844 6.027344 4.507812 7.59375 4.242188 8.851562 C 4.109375 9.46875 3.996094 10 3.945312 10.332031 C 4.054688 10.246094 4.15625 10.152344 4.253906 10.050781 C 4.414062 9.867188 4.609375 9.609375 4.765625 9.398438 C 4.855469 9.28125 4.933594 9.179688 4.980469 9.121094 C 5.011719 9.085938 5.101562 8.964844 5.210938 8.816406 C 5.242188 8.433594 5.25 8.054688 5.238281 7.671875 C 5.226562 7.261719 5.238281 6.855469 5.265625 6.449219 C 5.269531 6.433594 5.277344 6.417969 5.285156 6.40625 C 5.320312 6.371094 5.351562 6.238281 5.320312 5.996094 C 5.28125 5.664062 5.136719 5.242188 4.949219 5.117188 C 4.941406 5.109375 4.933594 5.109375 4.921875 5.109375 Z M 7.140625 6.578125 C 7.296875 6.578125 7.496094 6.679688 7.753906 6.882812 C 7.710938 7.007812 7.636719 7.117188 7.539062 7.207031 C 7.53125 7.210938 7.527344 7.21875 7.523438 7.226562 C 7.382812 7.449219 7.277344 7.6875 7.199219 7.941406 C 7.121094 8.222656 6.996094 8.476562 6.824219 8.714844 C 6.820312 8.71875 6.820312 8.722656 6.816406 8.726562 C 6.691406 8.992188 6.589844 9.238281 6.492188 9.476562 C 6.355469 9.851562 6.183594 10.210938 5.976562 10.550781 C 4.945312 10.832031 3.667969 11.125 3.464844 11.136719 C 3.441406 11.140625 3.414062 11.140625 3.390625 11.140625 L 3.378906 11.140625 L 3.359375 11.144531 C 3.503906 10.890625 3.769531 10.671875 4.003906 10.480469 C 4.136719 10.382812 4.257812 10.273438 4.371094 10.152344 C 4.535156 9.964844 4.734375 9.703125 4.894531 9.488281 C 4.980469 9.375 5.054688 9.277344 5.101562 9.21875 C 5.199219 9.097656 6.125 7.851562 6.902344 6.679688 C 6.96875 6.613281 7.046875 6.578125 7.140625 6.578125 Z M 7.058594 11.351562 C 7.105469 11.351562 7.128906 11.328125 7.132812 11.28125 C 7.136719 11.25 7.140625 11.222656 7.144531 11.199219 C 7.152344 11.148438 7.132812 11.117188 7.078125 11.109375 C 7.027344 11.101562 6.996094 11.121094 6.992188 11.175781 C 6.984375 11.203125 6.980469 11.234375 6.980469 11.269531 C 6.976562 11.289062 6.984375 11.308594 6.996094 11.324219 C 7.015625 11.34375 7.035156 11.351562 7.058594 11.351562 Z M 3.804688 13.761719 C 3.769531 13.761719 3.746094 13.746094 3.734375 13.714844 C 3.71875 13.675781 3.703125 13.636719 3.691406 13.597656 C 3.675781 13.546875 3.695312 13.515625 3.746094 13.5 C 3.792969 13.484375 3.828125 13.503906 3.839844 13.554688 C 3.851562 13.589844 3.863281 13.621094 3.875 13.652344 C 3.886719 13.679688 3.886719 13.703125 3.871094 13.726562 C 3.855469 13.75 3.832031 13.761719 3.804688 13.761719 Z M 4.867188 15.257812 C 4.855469 15.257812 4.84375 15.257812 4.835938 15.25 C 4.792969 15.234375 4.753906 15.214844 4.714844 15.191406 C 4.695312 15.183594 4.683594 15.167969 4.675781 15.148438 C 4.660156 15.097656 4.679688 15.066406 4.726562 15.050781 C 4.75 15.042969 4.769531 15.046875 4.785156 15.054688 C 4.820312 15.074219 4.855469 15.09375 4.894531 15.109375 C 4.933594 15.125 4.949219 15.15625 4.941406 15.195312 C 4.933594 15.238281 4.90625 15.257812 4.867188 15.257812 Z M 6.226562 17.03125 C 6.210938 17.03125 6.195312 17.027344 6.183594 17.019531 C 6.054688 16.9375 5.703125 16.488281 5.75 16.09375 C 5.757812 16.042969 5.785156 16.019531 5.835938 16.023438 C 5.886719 16.03125 5.910156 16.058594 5.902344 16.109375 C 5.867188 16.433594 6.175781 16.828125 6.265625 16.886719 C 6.300781 16.90625 6.3125 16.9375 6.300781 16.972656 C 6.289062 17.011719 6.265625 17.03125 6.226562 17.03125 Z M 4.535156 17.851562 C 4.496094 17.851562 4.46875 17.832031 4.460938 17.792969 C 4.453125 17.75 4.464844 17.722656 4.503906 17.703125 C 4.542969 17.6875 4.578125 17.671875 4.617188 17.652344 C 4.667969 17.636719 4.699219 17.648438 4.71875 17.695312 C 4.738281 17.746094 4.726562 17.777344 4.675781 17.796875 C 4.640625 17.8125 4.605469 17.828125 4.570312 17.84375 C 4.558594 17.851562 4.546875 17.851562 4.535156 17.851562 Z M 2.226562 20.109375 C 2.214844 20.109375 2.203125 20.109375 2.191406 20.101562 C 2.144531 20.078125 2.132812 20.042969 2.15625 19.996094 C 2.183594 19.941406 2.21875 19.890625 2.253906 19.839844 C 2.285156 19.800781 2.320312 19.792969 2.363281 19.824219 C 2.402344 19.855469 2.410156 19.890625 2.378906 19.933594 C 2.347656 19.976562 2.320312 20.019531 2.296875 20.066406 C 2.28125 20.097656 2.257812 20.109375 2.226562 20.109375 Z M 7.039062 10.425781 C 6.976562 10.425781 6.910156 10.4375 6.847656 10.457031 C 5.816406 10.792969 3.738281 11.277344 3.472656 11.292969 C 3.449219 11.292969 3.425781 11.296875 3.398438 11.296875 C 3.105469 11.3125 2.832031 11.324219 2.691406 11.824219 C 2.421875 12.789062 2.085938 13.726562 1.675781 14.636719 C 1.53125 14.980469 1.394531 15.300781 1.265625 15.648438 C 1.007812 16.324219 0.613281 17.476562 0.191406 18.699219 L 0.171875 18.757812 C -0.0820312 19.492188 -0.339844 20.253906 -0.574219 20.914062 C -0.652344 21.132812 -0.542969 21.34375 -0.4375 21.476562 C -0.0390625 21.988281 0.910156 22.347656 1.675781 22.277344 C 2.777344 22.171875 3.273438 21.621094 3.273438 21.125 C 3.273438 20.691406 3.417969 19.675781 3.765625 19.085938 C 3.460938 19.1875 3.167969 19.320312 2.894531 19.484375 C 2.851562 19.507812 2.8125 19.5 2.785156 19.457031 C 2.761719 19.414062 2.769531 19.378906 2.8125 19.351562 C 3.375 19.003906 4.132812 18.800781 4.542969 18.691406 C 4.617188 18.671875 4.679688 18.652344 4.730469 18.636719 C 5.144531 18.519531 5.957031 18.003906 6.382812 17.375 L 6.269531 17.398438 L 6.242188 17.402344 C 5.886719 17.46875 5.484375 17.542969 5.121094 17.648438 C 5.070312 17.660156 5.039062 17.640625 5.023438 17.59375 C 5.011719 17.542969 5.027344 17.511719 5.078125 17.496094 C 5.449219 17.390625 5.855469 17.316406 6.214844 17.25 C 6.625 17.171875 6.980469 17.105469 7.128906 17.023438 C 7.472656 16.808594 7.78125 16.550781 8.054688 16.25 C 8.199219 16.09375 8.351562 15.953125 8.515625 15.820312 C 8.855469 15.601562 9.210938 15.421875 9.589844 15.28125 C 9.734375 15.226562 9.839844 15.128906 9.90625 14.988281 C 9.839844 14.628906 9.660156 14.367188 9.386719 14.230469 C 9.339844 14.207031 9.328125 14.171875 9.351562 14.128906 C 9.375 14.082031 9.410156 14.070312 9.453125 14.09375 C 9.71875 14.226562 9.898438 14.433594 9.992188 14.714844 C 10.074219 14.449219 10.179688 14.195312 10.3125 13.949219 C 10.128906 13.894531 9.992188 13.785156 9.898438 13.621094 C 9.871094 13.574219 9.878906 13.539062 9.925781 13.511719 C 9.96875 13.488281 10.003906 13.496094 10.03125 13.542969 C 10.085938 13.640625 10.253906 13.816406 10.398438 13.800781 C 10.511719 13.589844 10.660156 13.410156 10.839844 13.261719 C 10.921875 13.199219 10.910156 13.167969 10.902344 13.15625 C 10.875 13.097656 10.75 13.027344 10.582031 12.976562 C 10.519531 12.960938 10.457031 12.949219 10.390625 12.949219 C 10.136719 13.011719 9.882812 13.058594 9.621094 13.089844 C 9.273438 13.199219 8.625 13.761719 8.417969 14.207031 C 8.410156 14.21875 8.402344 14.230469 8.390625 14.238281 C 8.1875 14.367188 7.605469 14.636719 7.042969 14.898438 L 7.019531 14.910156 C 6.796875 15.011719 6.585938 15.109375 6.410156 15.195312 C 6.132812 15.324219 5.839844 15.390625 5.53125 15.386719 C 5.488281 15.386719 5.445312 15.386719 5.402344 15.382812 C 5.351562 15.382812 5.328125 15.351562 5.332031 15.300781 C 5.332031 15.25 5.359375 15.226562 5.414062 15.230469 C 5.738281 15.25 6.050781 15.191406 6.34375 15.054688 L 6.351562 15.050781 C 5.582031 14.953125 4.535156 14.601562 4.023438 14.109375 C 3.984375 14.074219 3.984375 14.035156 4.019531 14 C 4.054688 13.960938 4.089844 13.960938 4.128906 13.996094 C 4.246094 14.105469 4.371094 14.199219 4.507812 14.28125 C 4.703125 13.96875 4.925781 13.6875 5.183594 13.429688 C 5.378906 13.226562 5.535156 13.058594 5.621094 12.871094 C 5.25 12.960938 4.964844 12.949219 4.757812 12.832031 C 4.738281 12.824219 4.726562 12.808594 4.71875 12.785156 C 4.714844 12.765625 4.71875 12.746094 4.726562 12.726562 C 4.753906 12.683594 4.789062 12.671875 4.832031 12.695312 C 5.296875 12.957031 6.214844 12.511719 6.761719 12.246094 L 6.769531 12.246094 C 6.886719 12.1875 6.992188 12.136719 7.074219 12.101562 C 7.03125 11.972656 7.003906 11.839844 6.988281 11.703125 C 6.984375 11.652344 7.007812 11.625 7.058594 11.621094 C 7.078125 11.617188 7.097656 11.621094 7.113281 11.636719 C 7.132812 11.648438 7.140625 11.667969 7.144531 11.6875 C 7.15625 11.832031 7.1875 11.972656 7.246094 12.109375 C 7.378906 12.300781 7.78125 12.464844 8.105469 12.597656 C 8.261719 12.652344 8.414062 12.722656 8.558594 12.808594 C 8.796875 13.050781 9.660156 12.96875 10.367188 12.796875 C 10.605469 12.738281 10.792969 12.605469 10.929688 12.398438 L 10.949219 12.367188 C 10.96875 12.335938 10.972656 12.300781 10.957031 12.269531 C 10.941406 12.234375 10.917969 12.21875 10.878906 12.214844 C 10.6875 12.195312 10.429688 12.15625 10.144531 12.105469 C 10.136719 12.15625 10.144531 12.199219 10.164062 12.246094 C 10.179688 12.277344 10.207031 12.296875 10.238281 12.308594 C 10.289062 12.324219 10.308594 12.355469 10.292969 12.40625 C 10.28125 12.453125 10.25 12.472656 10.199219 12.460938 C 10.121094 12.4375 10.066406 12.390625 10.027344 12.320312 C 9.988281 12.242188 9.976562 12.164062 9.992188 12.078125 C 9.660156 12.015625 9.363281 11.953125 9.203125 11.90625 C 8.859375 11.730469 8.175781 11.246094 7.484375 10.601562 C 7.359375 10.484375 7.210938 10.425781 7.039062 10.425781 Z M 7.039062 10.425781 "/></g><path style=" stroke:none;fill-rule:evenodd;fill:rgb(25.878906%,72.158813%,51.368713%);fill-opacity:1;" d="M 16.476562 8.289062 C 16.4375 8.289062 16.410156 8.269531 16.402344 8.230469 C 16.394531 8.191406 16.40625 8.164062 16.441406 8.144531 C 16.476562 8.125 16.511719 8.109375 16.542969 8.089844 C 16.589844 8.066406 16.621094 8.078125 16.648438 8.121094 C 16.671875 8.164062 16.660156 8.199219 16.617188 8.226562 C 16.582031 8.246094 16.546875 8.265625 16.511719 8.28125 C 16.5 8.289062 16.488281 8.292969 16.476562 8.289062 Z M 14.914062 8.675781 C 14.308594 8.671875 13.742188 8.523438 13.214844 8.226562 C 13.183594 8.210938 13.167969 8.183594 13.171875 8.148438 C 13.175781 8.113281 13.195312 8.09375 13.230469 8.082031 C 13.25 8.078125 13.269531 8.078125 13.289062 8.089844 C 13.710938 8.328125 14.164062 8.46875 14.648438 8.507812 C 15.132812 8.546875 15.601562 8.480469 16.058594 8.3125 C 16.105469 8.296875 16.136719 8.3125 16.15625 8.359375 C 16.171875 8.40625 16.15625 8.441406 16.113281 8.457031 C 15.726562 8.601562 15.324219 8.675781 14.914062 8.675781 Z M 14.914062 8.675781 "/><path style=" stroke:none;fill-rule:evenodd;fill:rgb(25.878906%,72.158813%,51.368713%);fill-opacity:1;" d="M 15.539062 19.347656 C 15.335938 19.347656 15.164062 19.273438 15.019531 19.128906 C 14.875 18.984375 14.800781 18.8125 14.800781 18.605469 C 14.800781 18.402344 14.875 18.226562 15.019531 18.082031 C 15.164062 17.9375 15.335938 17.867188 15.539062 17.867188 C 15.742188 17.867188 15.917969 17.9375 16.0625 18.082031 C 16.203125 18.226562 16.277344 18.402344 16.277344 18.605469 C 16.277344 18.8125 16.203125 18.984375 16.0625 19.128906 C 15.917969 19.273438 15.742188 19.347656 15.539062 19.347656 Z M 15.539062 19.347656 "/><path style=" stroke:none;fill-rule:evenodd;fill:rgb(20.779419%,28.62854%,36.859131%);fill-opacity:1;" d="M 12.339844 19.210938 C 12.289062 19.210938 12.265625 19.1875 12.261719 19.136719 C 12.261719 19.105469 12.261719 19.074219 12.261719 19.046875 C 12.261719 18.910156 12.269531 18.773438 12.289062 18.640625 C 12.296875 18.585938 12.324219 18.566406 12.378906 18.574219 C 12.429688 18.578125 12.449219 18.609375 12.441406 18.660156 C 12.425781 18.789062 12.414062 18.917969 12.414062 19.046875 C 12.414062 19.074219 12.414062 19.101562 12.417969 19.128906 C 12.417969 19.152344 12.410156 19.171875 12.394531 19.1875 C 12.382812 19.203125 12.363281 19.210938 12.339844 19.210938 Z M 15.101562 21.898438 C 14.800781 21.902344 14.503906 21.855469 14.214844 21.761719 C 13.925781 21.664062 13.660156 21.527344 13.414062 21.347656 C 13.171875 21.164062 12.960938 20.949219 12.785156 20.703125 C 12.609375 20.453125 12.476562 20.183594 12.386719 19.890625 C 12.371094 19.839844 12.390625 19.808594 12.4375 19.792969 C 12.488281 19.777344 12.519531 19.796875 12.535156 19.847656 C 12.621094 20.121094 12.746094 20.378906 12.910156 20.613281 C 13.078125 20.847656 13.277344 21.050781 13.507812 21.222656 C 13.738281 21.394531 13.988281 21.523438 14.261719 21.613281 C 14.535156 21.703125 14.816406 21.746094 15.101562 21.746094 C 15.289062 21.746094 15.472656 21.726562 15.652344 21.6875 C 15.671875 21.683594 15.691406 21.6875 15.710938 21.699219 C 15.738281 21.71875 15.75 21.746094 15.742188 21.777344 C 15.738281 21.8125 15.71875 21.832031 15.683594 21.839844 C 15.492188 21.878906 15.296875 21.902344 15.101562 21.898438 Z M 14.914062 22.390625 C 15.160156 22.390625 15.398438 22.363281 15.636719 22.304688 C 15.875 22.25 16.101562 22.167969 16.320312 22.058594 C 16.539062 21.949219 16.742188 21.816406 16.929688 21.660156 C 17.117188 21.5 17.28125 21.324219 17.429688 21.128906 C 17.574219 20.933594 17.699219 20.722656 17.796875 20.5 C 17.890625 20.273438 17.964844 20.042969 18.007812 19.800781 C 18.050781 19.558594 18.066406 19.316406 18.050781 19.070312 C 18.039062 18.828125 18 18.585938 17.929688 18.351562 C 17.917969 18.308594 17.886719 18.289062 17.839844 18.296875 C 17.796875 18.308594 17.773438 18.335938 17.777344 18.382812 C 17.785156 18.457031 17.789062 18.53125 17.789062 18.605469 C 17.789062 18.90625 17.734375 19.195312 17.617188 19.472656 C 17.503906 19.75 17.34375 19.992188 17.132812 20.207031 C 16.921875 20.417969 16.675781 20.582031 16.402344 20.695312 C 16.125 20.808594 15.839844 20.867188 15.539062 20.867188 C 15.242188 20.867188 14.953125 20.808594 14.679688 20.695312 C 14.402344 20.582031 14.160156 20.417969 13.949219 20.207031 C 13.738281 19.992188 13.574219 19.75 13.460938 19.472656 C 13.347656 19.195312 13.289062 18.90625 13.289062 18.605469 C 13.289062 18.308594 13.347656 18.019531 13.460938 17.742188 C 13.574219 17.464844 13.738281 17.21875 13.949219 17.007812 C 14.160156 16.796875 14.402344 16.632812 14.679688 16.519531 C 14.953125 16.402344 15.242188 16.34375 15.539062 16.34375 C 15.613281 16.34375 15.6875 16.347656 15.761719 16.355469 C 15.8125 16.363281 15.839844 16.34375 15.847656 16.292969 C 15.855469 16.25 15.839844 16.21875 15.792969 16.207031 C 15.578125 16.140625 15.355469 16.101562 15.132812 16.085938 C 14.90625 16.070312 14.683594 16.078125 14.460938 16.113281 C 14.238281 16.144531 14.023438 16.199219 13.8125 16.28125 C 13.601562 16.359375 13.402344 16.460938 13.210938 16.582031 C 13.023438 16.707031 12.847656 16.847656 12.691406 17.007812 C 12.53125 17.167969 12.390625 17.34375 12.269531 17.53125 C 12.148438 17.722656 12.050781 17.925781 11.96875 18.136719 C 11.890625 18.347656 11.835938 18.566406 11.804688 18.789062 C 11.773438 19.011719 11.765625 19.238281 11.78125 19.464844 C 11.796875 19.6875 11.839844 19.910156 11.902344 20.125 C 11.964844 20.34375 12.050781 20.550781 12.160156 20.75 C 12.265625 20.945312 12.394531 21.132812 12.542969 21.300781 C 12.691406 21.472656 12.855469 21.625 13.035156 21.761719 C 13.214844 21.898438 13.40625 22.011719 13.613281 22.105469 C 13.816406 22.199219 14.027344 22.269531 14.25 22.316406 C 14.46875 22.367188 14.691406 22.390625 14.914062 22.390625 Z M 14.914062 22.390625 "/></g></svg>